<svg height="479pt" viewBox="0 -31 479.82311 479" width="479pt" xmlns="http://www.w3.org/2000/svg"><path d="m404.558594 121.53125c-13.75-61.785156-66.242188-107.347656-129.347656-112.277344-63.109376-4.925781-122.035157 31.933594-145.210938 90.839844-44.757812-12.65625-92.152344 8.597656-112.472656 50.4375-20.320313 41.839844-7.722656 92.226562 29.898437 119.582031 37.617188 27.355469 89.4375 23.808594 122.972657-8.421875 50.863281 43.765625 125.265624 46.425782 179.121093 6.402344 27.480469 17.503906 62.832031 16.59375 89.375-2.300781 26.542969-18.898438 38.972657-52 31.429688-83.699219-7.542969-31.695312-33.554688-55.648438-65.765625-60.5625zm0 0" fill="#4891d3"/><path d="m392 120.414062c-27.210938 0-52.558594 13.832032-67.28125 36.71875 31.660156-20.363281 73.230469-15.898437 99.84375 10.714844 26.617188 26.617188 31.078125 68.1875 10.71875 99.84375 29.851562-19.203125 43.476562-55.78125 33.46875-89.835937-10.003906-34.054688-41.253906-57.441407-76.75-57.441407zm0 0" fill="#57b7eb"/><path d="m363.441406 125.773438c9.105469-3.542969 18.789063-5.359376 28.558594-5.359376 4.210938.003907 8.414062.378907 12.558594 1.117188-12.238282-55.296875-55.757813-98.285156-111.199219-109.847656-55.445313-11.5625-112.519531 10.449218-145.839844 56.25 35.125-25.46875 79.863281-33.742188 121.773438-22.519532 41.910156 11.222657 76.527343 40.746094 94.226562 80.359376zm0 0" fill="#57b7eb"/><path d="m88 128.414062c30.058594.019532 58.371094 14.117188 76.5 38.09375 18.132812 23.972657 23.984375 55.058594 15.820312 83.984376 23.585938-30.714844 26.40625-72.59375 7.152344-106.195313s-56.808594-52.34375-95.234375-47.527344c-38.425781 4.816407-70.195312 32.25-80.558593 69.5625 18.128906-23.859375 46.355468-37.882812 76.320312-37.917969zm0 0" fill="#57b7eb"/><path d="m200 152.414062v64h-64v192h208v-256zm0 0" fill="#a1d51c"/><path d="m200 216.414062h-64l64-64zm0 0" fill="#c4f236"/><path d="m264 376.414062c-53.019531 0-96-42.980468-96-96v-64h-32v192h208v-32zm0 0" fill="#7ab92d"/><path d="m168 232.414062v-16h32zm0 0" fill="#7ab92d"/><path d="m280 152.414062h64v112c-35.347656 0-64-28.65625-64-64zm0 0" fill="#c4f236"/><g fill="#39519d"><path d="m411.199219 114.574219c-17.566407-66.988281-77.945313-113.820313-147.199219-114.160157-60.09375-.195312-114.589844 35.238282-138.800781 90.238282-6.964844-1.496094-14.074219-2.246094-21.199219-2.238282-57.4375 0-104 46.5625-104 104s46.5625 104 104 104c4.417969 0 8-3.582031 8-8 0-4.421874-3.582031-8-8-8-48.601562 0-88-39.402343-88-88 0-48.601562 39.398438-88 88-88 8.117188-.007812 16.195312 1.125 24 3.359376 3.984375 1.148437 8.183594-.933594 9.679688-4.800782 20.132812-52.214844 70.355468-86.632812 126.320312-86.558594 63.742188.3125 118.820312 44.605469 132.800781 106.796876.714844 3.207031 3.316407 5.648437 6.558594 6.160156 26.679687 3.066406 49.4375 20.726562 59.03125 45.808594 9.59375 25.085937 4.429687 53.421874-13.394531 73.511718-17.828125 20.085938-45.347656 28.582032-71.394532 22.039063-4.417968-.882813-8.71875 1.984375-9.601562 6.402343-.882812 4.417969 1.980469 8.714844 6.398438 9.597657 5.792968 1.167969 11.691406 1.734375 17.601562 1.683593 44.792969-.089843 82.375-33.816406 87.292969-78.339843 4.914062-44.523438-24.398438-85.636719-68.09375-95.5zm0 0"/><path d="m344 144.414062h-144c-2.113281-.035156-4.15625.769532-5.679688 2.238282l-64 64c-1.519531 1.527344-2.355468 3.605468-2.320312 5.761718v192c0 4.417969 3.582031 8 8 8h208c4.417969 0 8-3.582031 8-8v-39.363281c0-4.417969-3.582031-8-8-8s-8 3.582031-8 8v31.363281h-192v-176h56c4.417969 0 8-3.582031 8-8v-56h128v177.359376c0 4.417968 3.582031 8 8 8s8-3.582032 8-8v-185.359376c0-4.421874-3.582031-8-8-8zm-152 64h-36.71875l36.71875-36.722656zm0 0"/><path d="m296 224.414062h-56c-4.417969 0-8 3.578126-8 8 0 4.417969 3.582031 8 8 8h56c4.417969 0 8-3.582031 8-8 0-4.421874-3.582031-8-8-8zm0 0"/><path d="m296 264.414062h-112c-4.417969 0-8 3.578126-8 8 0 4.417969 3.582031 8 8 8h112c4.417969 0 8-3.582031 8-8 0-4.421874-3.582031-8-8-8zm0 0"/><path d="m296 304.414062h-112c-4.417969 0-8 3.578126-8 8 0 4.417969 3.582031 8 8 8h112c4.417969 0 8-3.582031 8-8 0-4.421874-3.582031-8-8-8zm0 0"/><path d="m296 344.414062h-112c-4.417969 0-8 3.578126-8 8 0 4.417969 3.582031 8 8 8h112c4.417969 0 8-3.582031 8-8 0-4.421874-3.582031-8-8-8zm0 0"/><path d="m264 112.414062c4.417969 0 8-3.582031 8-8v-28.722656l10.320312 10.402344c1.5 1.511719 3.546876 2.363281 5.679688 2.363281s4.179688-.851562 5.679688-2.363281c1.515624-1.503906 2.367187-3.546875 2.367187-5.679688 0-2.136718-.851563-4.179687-2.367187-5.683593l-24-24c-1.5-1.511719-3.546876-2.363281-5.679688-2.363281s-4.179688.851562-5.679688 2.363281l-24 24c-3.136718 3.140625-3.136718 8.226562 0 11.363281 3.136719 3.136719 8.222657 3.136719 11.359376 0l10.320312-10.402344v28.722656c0 4.417969 3.582031 8 8 8zm0 0"/><path d="m200 104.414062v-16c0-4.421874-3.582031-8-8-8s-8 3.578126-8 8v16c0 4.417969 3.582031 8 8 8s8-3.582031 8-8zm0 0"/><path d="m408 208.414062v-32c0-4.421874-3.582031-8-8-8s-8 3.578126-8 8v32c0 4.417969 3.582031 8 8 8s8-3.582031 8-8zm0 0"/><path d="m88 152.414062v48c0 4.417969 3.582031 8 8 8s8-3.582031 8-8v-48c0-4.421874-3.582031-8-8-8s-8 3.578126-8 8zm0 0"/></g></svg>